<?xml version="1.0" encoding="UTF-8"?>
<svg id="Layer_2" data-name="Layer 2" xmlns="http://www.w3.org/2000/svg" viewBox="0 0 800 588.34">
  <g id="Layer_1-2" data-name="Layer 1">
    <g>
      <path d="M154.08,442.69v-97.57c0-4.91-1.76-9.13-4.21-12.28h35.1c-2.46,3.16-4.21,7.37-4.21,12.28v225.32c0,4.91,1.75,9.13,4.21,12.28h-35.1c2.46-3.16,4.21-7.37,4.21-12.28v-103.89H30.89v103.89c0,4.91,1.76,9.13,4.21,12.28H0c2.46-3.16,4.21-7.37,4.21-12.28v-225.32c0-4.91-1.76-9.13-4.21-12.28h35.1c-2.46,3.16-4.21,7.37-4.21,12.28v97.57h123.19ZM269.13,514.28l-22.46,54.4c-1.76,4.21-3.16,7.37-3.16,8.42,0,2.46,1.76,4.21,2.81,5.62h-39.31c2.81-1.76,4.91-4.21,6.32-7.37l105.99-248.13h.7l111.26,241.82c3.51,7.02,5.62,10.18,8.77,13.69h-40.01c1.05-1.4,2.81-3.16,2.81-5.62,0-1.05-1.4-4.21-3.16-8.42l-22.46-54.4h-108.1ZM366.35,490.42l-45.27-106.34h-.7l-43.87,106.34h89.85ZM492.98,500.24c0,38.26,19.65,64.23,59.31,64.23s59.31-25.97,59.31-64.23v-155.13c0-4.91-1.76-9.13-4.21-12.28h35.1c-2.46,3.16-4.21,7.37-4.21,12.28v156.88c0,47.03-32.29,86.34-85.99,86.34s-85.99-39.31-85.99-86.34v-156.88c0-4.91-1.75-9.13-4.21-12.28h35.1c-2.46,3.16-4.21,7.37-4.21,12.28v155.13ZM774.04,367.23c-11.58-9.48-26.32-16.14-41.76-16.14-21.06,0-35.1,14.39-35.1,34.75,0,39.66,101.08,39.66,101.08,121.08,0,47.03-35.1,81.42-84.58,81.42-6.32,0-12.99-1.76-19.3-3.16-6.67-1.76-12.99-3.16-19.65-3.16-3.86,0-7.37,2.46-10.18,4.91v-44.92c12.28,12.28,26.67,19.65,44.57,19.65,35.1,0,62.47-18.6,62.47-54.75,0-67.03-101.08-55.1-101.08-120.73,0-33.34,22.11-58.96,56.86-58.96,5.97,0,14.04,1.4,21.41,2.46,7.37,1.4,14.04,3.16,16.85,3.16s6.32-1.05,8.42-2.81v37.2Z"/>
      <path d="M70.71,173.35v.7c67.39,5.26,109.5,73.35,109.5,123.54,0,2.46,1.4,5.62,2.81,8.42h-30.53c.7-4.56,1.05-8.77,1.05-12.99,0-62.47-58.96-104.59-121.79-104.59v105.29c0,4.91,1.76,9.13,4.21,12.28H.87c2.46-3.16,4.21-7.37,4.21-12.28V68.41c0-4.91-1.76-9.13-4.21-12.28h35.1c-2.46,3.16-4.21,7.37-4.21,12.28v117.22h.7l98.27-116.87c2.46-3.16,3.86-5.62,3.86-5.97,0-2.81-3.16-5.26-4.56-6.67h45.98c-4.91,2.81-9.48,8.07-14.04,12.99l-91.25,104.24ZM186,306.02c2.46-3.16,4.21-7.37,4.21-12.28V68.41c0-4.91-1.76-9.13-4.21-12.28h138.98v26.32c-6.32-1.75-12.64-2.46-18.95-2.46h-89.15v88.79h56.15c8.42,0,17.2-.35,23.52-4.21v32.29c-6.32-3.86-15.09-4.21-23.52-4.21h-56.15v89.5h89.15c6.32,0,12.63-.7,18.95-2.46v26.32h-138.98ZM336.74,67.71c-1.75-3.86-4.56-7.37-8.77-11.58h43.87c-2.11,1.76-5.62,3.86-5.62,7.37,0,.35,2.46,5.97,6.32,14.39l78.62,175.83h.7l73-175.83c3.86-8.42,6.32-14.04,6.32-14.39,0-3.51-3.51-5.62-5.26-7.37h42.12c-4.21,4.21-7.02,7.72-8.77,11.58l-105.29,243.92h-.7l-116.52-243.92ZM601.89,293.73c0,4.91,1.75,9.13,4.21,12.28h-35.1c2.46-3.16,4.21-7.37,4.21-12.28V68.41c0-4.91-1.76-9.13-4.21-12.28h35.1c-2.46,3.16-4.21,7.37-4.21,12.28v225.32ZM645.92,291.18c0,6.27,1.75,11.65,4.21,15.68h-35.1c2.46-4.03,4.21-9.41,4.21-15.68V0h.7l148.81,249.13h.35V71.56c0-6.27-1.76-11.65-4.21-15.68h35.1c-2.46,4.03-4.21,9.41-4.21,15.68v271.67h-.7l-148.46-247.34-.7.9v194.4Z"/>
    </g>
  </g>
</svg>