<?xml version="1.0" encoding="UTF-8"?>
<svg xmlns="http://www.w3.org/2000/svg" viewBox="0 0 200 200" fill="#000000">
  <path d="M185,0H15C6.2,0,0,6.3,0,13.8v173.5c0,7.3,6,13.5,14.5,12.6.3-.1.7-.1,1.1-.1h169.4c8.8,0,15-6.3,15-13.8V13.8c0-7.5-6.2-13.8-15-13.8ZM61.2,168.4h-30v-90.5h30v90.5ZM46.2,65.4c-10,0-16.2-7.6-16.2-16.4s7.5-13.8,17.5-13.8,16.2,6.3,16.2,15.1-7.5,15.1-17.5,15.1ZM170,168.4h-30v-49c0-11.3-3.8-20.1-15-20.1s-13.8,5-15,11.3c-1.2,2.5-1.2,5-1.2,7.5v50.3h-30v-90.5h30v12.6c3.7-6.3,10-15.1,26.2-15.1s35,12.5,35,40.2v52.8Z"/>
  <path d="M185,6c5.1,0,9,3.4,9,7.8v172.2c0,4.4-3.9,7.8-9,7.8H15.6c-.5,0-1.2,0-2.1.2h-.7c-4.5,0-6.9-3.4-6.9-6.7V13.8c0-4.4,4-7.8,9.1-7.8h170M185,0H15C6.2,0,0,6.3,0,13.8v173.5c0,6.8,5.2,12.7,12.9,12.7s1.1,0,1.6-.1c.3-.1.7-.1,1.1-.1h169.4c8.8,0,15-6.3,15-13.8V13.8c0-7.5-6.2-13.8-15-13.8h0Z"/>
</svg>
